<svg xmlns="http://www.w3.org/2000/svg" width="375" viewBox="0 0 375 375" height="375" version="1.0"><defs><clipPath id="a"><path d="M 173 152 L 260 152 L 260 308.449219 L 173 308.449219 Z M 173 152"/></clipPath><clipPath id="b"><path d="M 115 66.199219 L 202 66.199219 L 202 223 L 115 223 Z M 115 66.199219"/></clipPath></defs><path d="M 112.261719 128.195312 L 89.300781 114.953125 C 65.585938 155.976562 82.261719 209.9375 123.335938 233.625 C 147.019531 247.285156 174.511719 248.386719 198.089844 239.015625 C 179.652344 241.695312 160.214844 238.433594 142.828125 228.410156 C 105.964844 207.148438 97.832031 166.738281 112.261719 128.195312"/><path fill="#6D9B51" d="M 98.59375 222.8125 L 75.636719 236.050781 C 99.347656 277.078125 154.46875 289.636719 195.542969 265.949219 C 219.230469 252.289062 233.933594 229.066406 237.59375 203.976562 C 230.699219 221.269531 218.15625 236.453125 200.765625 246.480469 C 163.902344 267.738281 124.800781 254.566406 98.59375 222.8125"/><g clip-path="url(#a)"><path d="M 173.796875 281.941406 L 173.796875 308.425781 C 221.226562 308.425781 259.675781 267.023438 259.675781 219.652344 C 259.675781 192.332031 246.886719 168 226.964844 152.289062 C 238.515625 166.898438 245.40625 185.339844 245.40625 205.398438 C 245.40625 247.914062 214.433594 275.15625 173.796875 281.941406"/></g><path fill="#6D9B51" d="M 262.667969 246.457031 L 285.628906 259.699219 C 309.34375 218.671875 292.671875 164.710938 251.597656 141.023438 C 227.910156 127.367188 200.417969 126.257812 176.839844 135.636719 C 195.277344 132.953125 214.714844 136.214844 232.105469 146.242188 C 268.96875 167.5 277.097656 207.914062 262.667969 246.457031"/><path d="M 276.335938 151.839844 L 299.296875 138.597656 C 275.582031 97.570312 220.464844 85.015625 179.386719 108.699219 C 155.703125 122.359375 140.996094 145.589844 137.339844 170.671875 C 144.230469 153.382812 156.777344 138.199219 174.164062 128.167969 C 211.027344 106.914062 250.132812 120.085938 276.335938 151.839844"/><g clip-path="url(#b)"><path fill="#6D9B51" d="M 201.132812 92.707031 L 201.132812 66.226562 C 153.707031 66.226562 115.257812 107.625 115.257812 155 C 115.257812 182.320312 128.042969 206.652344 147.964844 222.363281 C 136.417969 207.753906 129.527344 189.308594 129.527344 169.253906 C 129.527344 126.738281 160.496094 99.496094 201.132812 92.707031"/></g></svg>